<?xml version="1.0" encoding="UTF-8" standalone="no"?>
<!DOCTYPE svg PUBLIC "-//W3C//DTD SVG 1.1//EN" "http://www.w3.org/Graphics/SVG/1.1/DTD/svg11.dtd">
<!-- Generated by graphviz version 2.40.1 (20161225.0304)
 -->
<!-- Title: G Pages: 1 -->
<svg width="278pt" height="188pt" viewBox="0.00 0.00 278.00 188.00" xmlns="http://www.w3.org/2000/svg" xmlns:xlink="http://www.w3.org/1999/xlink">
<g id="graph0" class="graph" transform="scale(1 1) rotate(0) translate(4 184)">
<title>G</title>
<polygon fill="#ffffff" stroke="transparent" points="-4,4 -4,-184 274,-184 274,4 -4,4"/>
<!-- Trogdord -->
<g id="node1" class="node">
<title>Trogdord</title>
<polygon fill="none" stroke="#000000" points="169.3739,-108 100.6261,-108 100.6261,-72 169.3739,-72 169.3739,-108"/>
<text text-anchor="middle" x="135" y="-85.8" font-family="Times,serif" font-size="14.00" fill="#000000">Trogdord</text>
</g>
<!-- Core Library -->
<g id="node2" class="node">
<title>Core Library</title>
<polygon fill="none" stroke="#000000" points="179.1913,-36 90.8087,-36 90.8087,0 179.1913,0 179.1913,-36"/>
<text text-anchor="middle" x="135" y="-13.8" font-family="Times,serif" font-size="14.00" fill="#000000">Core Library</text>
</g>
<!-- Trogdord&#45;&gt;Core Library -->
<g id="edge1" class="edge">
<title>Trogdord-&gt;Core Library</title>
<path fill="none" stroke="#000000" d="M135,-61.5726C135,-56.6792 135,-51.5904 135,-46.6901"/>
<polygon fill="#000000" stroke="#000000" points="131.5001,-61.8313 135,-71.8314 138.5001,-61.8314 131.5001,-61.8313"/>
<polygon fill="#000000" stroke="#000000" points="138.5001,-46.4132 135,-36.4133 131.5001,-46.4133 138.5001,-46.4132"/>
</g>
<!-- Client 1 -->
<g id="node3" class="node">
<title>Client 1</title>
<polygon fill="none" stroke="#000000" points="54,-180 0,-180 0,-144 54,-144 54,-180"/>
<text text-anchor="middle" x="27" y="-157.8" font-family="Times,serif" font-size="14.00" fill="#000000">Client</text>
</g>
<!-- Client 1&#45;&gt;Trogdord -->
<g id="edge2" class="edge">
<title>Client 1-&gt;Trogdord</title>
<path fill="none" stroke="#000000" d="M62.6266,-138.2489C74.4492,-130.3672 87.6058,-121.5961 99.4245,-113.717"/>
<polygon fill="#000000" stroke="#000000" points="60.632,-135.3721 54.253,-143.8314 64.5149,-141.1965 60.632,-135.3721"/>
<polygon fill="#000000" stroke="#000000" points="101.3767,-116.6221 107.7558,-108.1628 97.4938,-110.7977 101.3767,-116.6221"/>
</g>
<!-- Client 2 -->
<g id="node4" class="node">
<title>Client 2</title>
<polygon fill="none" stroke="#000000" points="126,-180 72,-180 72,-144 126,-144 126,-180"/>
<text text-anchor="middle" x="99" y="-157.8" font-family="Times,serif" font-size="14.00" fill="#000000">Client</text>
</g>
<!-- Client 2&#45;&gt;Trogdord -->
<g id="edge3" class="edge">
<title>Client 2-&gt;Trogdord</title>
<path fill="none" stroke="#000000" d="M112.6513,-134.6975C115.4642,-129.0715 118.4279,-123.1442 121.2446,-117.5109"/>
<polygon fill="#000000" stroke="#000000" points="109.426,-133.3218 108.0843,-143.8314 115.687,-136.4523 109.426,-133.3218"/>
<polygon fill="#000000" stroke="#000000" points="124.4517,-118.9228 125.7934,-108.4133 118.1907,-115.7923 124.4517,-118.9228"/>
</g>
<!-- ... -->
<g id="node5" class="node">
<title>...</title>
<text text-anchor="middle" x="171" y="-157.8" font-family="Times,serif" font-size="14.00" fill="#000000">...</text>
</g>
<!-- ...&#45;&gt;Trogdord -->
<!-- Client x -->
<g id="node6" class="node">
<title>Client x</title>
<polygon fill="none" stroke="#000000" points="270,-180 216,-180 216,-144 270,-144 270,-180"/>
<text text-anchor="middle" x="243" y="-157.8" font-family="Times,serif" font-size="14.00" fill="#000000">Client</text>
</g>
<!-- Client x&#45;&gt;Trogdord -->
<g id="edge5" class="edge">
<title>Client x-&gt;Trogdord</title>
<path fill="none" stroke="#000000" d="M207.3734,-138.2489C195.5508,-130.3672 182.3942,-121.5961 170.5755,-113.717"/>
<polygon fill="#000000" stroke="#000000" points="205.4851,-141.1965 215.747,-143.8314 209.368,-135.3721 205.4851,-141.1965"/>
<polygon fill="#000000" stroke="#000000" points="172.5062,-110.7977 162.2442,-108.1628 168.6233,-116.6221 172.5062,-110.7977"/>
</g>
</g>
</svg>