<?xml version="1.0" encoding="UTF-8" standalone="no"?>
<!DOCTYPE svg PUBLIC "-//W3C//DTD SVG 1.1//EN" "http://www.w3.org/Graphics/SVG/1.1/DTD/svg11.dtd">
<!-- Generated by graphviz version 2.40.1 (20161225.0304)
 -->
<!-- Title: G Pages: 1 -->
<svg width="290pt" height="260pt" viewBox="0.00 0.00 290.02 260.00" xmlns="http://www.w3.org/2000/svg" xmlns:xlink="http://www.w3.org/1999/xlink">
<g id="graph0" class="graph" transform="scale(1 1) rotate(0) translate(4 256)">
<title>G</title>
<polygon fill="#ffffff" stroke="transparent" points="-4,4 -4,-256 286.0234,-256 286.0234,4 -4,4"/>
<!-- rank0 -->
<!-- rank1 -->
<!-- rank0&#45;&gt;rank1 -->
<g id="edge1" class="edge">
<title>rank0-&gt;rank1</title>
<path fill="none" stroke="#ffffff" d="M57.986,-108.1686C56.2293,-116.0734 54.1317,-125.5128 52.1871,-134.2635"/>
<polygon fill="#ffffff" stroke="#ffffff" points="48.7569,-133.5654 50.0042,-144.0866 55.5902,-135.084 48.7569,-133.5654"/>
</g>
<!-- Trogdord -->
<g id="node5" class="node">
<title>Trogdord</title>
<polygon fill="none" stroke="#000000" points="196.3974,-108 127.6495,-108 127.6495,-72 196.3974,-72 196.3974,-108"/>
<text text-anchor="middle" x="162.0234" y="-85.8" font-family="Times,serif" font-size="14.00" fill="#000000">Trogdord</text>
</g>
<!-- rank0&#45;&gt;Trogdord -->
<!-- rank2 -->
<!-- rank1&#45;&gt;rank2 -->
<g id="edge2" class="edge">
<title>rank1-&gt;rank2</title>
<path fill="none" stroke="#ffffff" d="M42.743,-180.1686C41.3526,-187.869 39.6994,-197.0257 38.1542,-205.5834"/>
<polygon fill="#ffffff" stroke="#ffffff" points="34.6807,-205.1239 36.3481,-215.5867 41.5693,-206.3678 34.6807,-205.1239"/>
</g>
<!-- Redis -->
<g id="node6" class="node">
<title>Redis</title>
<polygon fill="none" stroke="#000000" points="189.0234,-180 135.0234,-180 135.0234,-144 189.0234,-144 189.0234,-180"/>
<text text-anchor="middle" x="162.0234" y="-157.8" font-family="Times,serif" font-size="14.00" fill="#000000">Redis</text>
</g>
<!-- rank1&#45;&gt;Redis -->
<!-- Client 1 -->
<g id="node7" class="node">
<title>Client 1</title>
<polygon fill="none" stroke="#000000" points="138.0234,-252 84.0234,-252 84.0234,-216 138.0234,-216 138.0234,-252"/>
<text text-anchor="middle" x="111.0234" y="-229.8" font-family="Times,serif" font-size="14.00" fill="#000000">Client</text>
</g>
<!-- rank2&#45;&gt;Client 1 -->
<!-- Core Library -->
<g id="node4" class="node">
<title>Core Library</title>
<polygon fill="none" stroke="#000000" points="206.2148,-36 117.8321,-36 117.8321,0 206.2148,0 206.2148,-36"/>
<text text-anchor="middle" x="162.0234" y="-13.8" font-family="Times,serif" font-size="14.00" fill="#000000">Core Library</text>
</g>
<!-- Core Library&#45;&gt;Trogdord -->
<g id="edge9" class="edge">
<title>Core Library-&gt;Trogdord</title>
<path fill="none" stroke="#000000" d="M162.0234,-46.4274C162.0234,-51.3208 162.0234,-56.4096 162.0234,-61.3099"/>
<polygon fill="#000000" stroke="#000000" points="165.5235,-46.1686 162.0234,-36.1686 158.5235,-46.1687 165.5235,-46.1686"/>
<polygon fill="#000000" stroke="#000000" points="158.5235,-61.5867 162.0234,-71.5867 165.5235,-61.5868 158.5235,-61.5867"/>
</g>
<!-- Trogdord&#45;&gt;Redis -->
<g id="edge8" class="edge">
<title>Trogdord-&gt;Redis</title>
<path fill="none" stroke="#000000" d="M162.0234,-108.1686C162.0234,-115.869 162.0234,-125.0257 162.0234,-133.5834"/>
<polygon fill="#000000" stroke="#000000" points="158.5235,-133.5867 162.0234,-143.5867 165.5235,-133.5868 158.5235,-133.5867"/>
</g>
<!-- Redis&#45;&gt;Client 1 -->
<g id="edge10" class="edge">
<title>Redis-&gt;Client 1</title>
<path fill="none" stroke="#000000" d="M149.154,-180.1686C143.3399,-188.3768 136.3538,-198.2394 129.9588,-207.2677"/>
<polygon fill="#000000" stroke="#000000" points="126.9903,-205.4034 124.0662,-215.5867 132.7025,-209.4495 126.9903,-205.4034"/>
</g>
<!-- ... -->
<g id="node8" class="node">
<title>...</title>
<text text-anchor="middle" x="183.0234" y="-229.8" font-family="Times,serif" font-size="14.00" fill="#000000">...</text>
</g>
<!-- Redis&#45;&gt;... -->
<!-- Client x -->
<g id="node9" class="node">
<title>Client x</title>
<polygon fill="none" stroke="#000000" points="282.0234,-252 228.0234,-252 228.0234,-216 282.0234,-216 282.0234,-252"/>
<text text-anchor="middle" x="255.0234" y="-229.8" font-family="Times,serif" font-size="14.00" fill="#000000">Client</text>
</g>
<!-- Redis&#45;&gt;Client x -->
<g id="edge14" class="edge">
<title>Redis-&gt;Client x</title>
<path fill="none" stroke="#000000" d="M185.4913,-180.1686C197.0561,-189.1221 211.1638,-200.0442 223.6418,-209.7045"/>
<polygon fill="#000000" stroke="#000000" points="221.5132,-212.4829 231.5631,-215.8372 225.7985,-206.9479 221.5132,-212.4829"/>
</g>
<!-- Client 1&#45;&gt;Trogdord -->
<g id="edge11" class="edge">
<title>Client 1-&gt;Trogdord</title>
<path fill="none" stroke="#000000" d="M111.8127,-215.8147C113.13,-197.199 116.6449,-167.7162 126.0234,-144 129.7752,-134.5126 135.3767,-124.9811 141.05,-116.6235"/>
<polygon fill="#000000" stroke="#000000" points="143.9636,-118.5658 146.9137,-108.39 138.2618,-114.505 143.9636,-118.5658"/>
</g>
<!-- Client 1&#45;&gt;... -->
<!-- ...&#45;&gt;Trogdord -->
<!-- ...&#45;&gt;Client x -->
<!-- Client x&#45;&gt;Trogdord -->
<g id="edge15" class="edge">
<title>Client x-&gt;Trogdord</title>
<path fill="none" stroke="#000000" d="M248.5429,-215.8538C241.3697,-197.0088 228.7202,-167.1056 213.0234,-144 206.1858,-133.935 197.4599,-123.9534 189.1667,-115.361"/>
<polygon fill="#000000" stroke="#000000" points="191.5809,-112.825 182.0485,-108.2006 186.6165,-117.7601 191.5809,-112.825"/>
</g>
</g>
</svg>