<?xml version="1.0" encoding="UTF-8" standalone="no"?>
<!DOCTYPE svg PUBLIC "-//W3C//DTD SVG 1.1//EN" "http://www.w3.org/Graphics/SVG/1.1/DTD/svg11.dtd">
<!-- Generated by graphviz version 2.40.1 (20161225.0304)
 -->
<!-- Title: G Pages: 1 -->
<svg width="206pt" height="260pt" viewBox="0.00 0.00 206.00 260.00" xmlns="http://www.w3.org/2000/svg" xmlns:xlink="http://www.w3.org/1999/xlink">
<g id="graph0" class="graph" transform="scale(1 1) rotate(0) translate(4 256)">
<title>G</title>
<polygon fill="#ffffff" stroke="transparent" points="-4,4 -4,-256 202,-256 202,4 -4,4"/>
<!-- Redis -->
<g id="node1" class="node">
<title>Redis</title>
<polygon fill="none" stroke="#000000" points="126,-180 72,-180 72,-144 126,-144 126,-180"/>
<text text-anchor="middle" x="99" y="-157.8" font-family="Times,serif" font-size="14.00" fill="#000000">Redis</text>
</g>
<!-- Trogdord -->
<g id="node2" class="node">
<title>Trogdord</title>
<polygon fill="none" stroke="#000000" points="133.3739,-108 64.6261,-108 64.6261,-72 133.3739,-72 133.3739,-108"/>
<text text-anchor="middle" x="99" y="-85.8" font-family="Times,serif" font-size="14.00" fill="#000000">Trogdord</text>
</g>
<!-- Redis&#45;&gt;Trogdord -->
<g id="edge2" class="edge">
<title>Redis-&gt;Trogdord</title>
<path fill="none" stroke="#000000" d="M99,-133.5726C99,-128.6792 99,-123.5904 99,-118.6901"/>
<polygon fill="#000000" stroke="#000000" points="95.5001,-133.8313 99,-143.8314 102.5001,-133.8314 95.5001,-133.8313"/>
<polygon fill="#000000" stroke="#000000" points="102.5001,-118.4132 99,-108.4133 95.5001,-118.4133 102.5001,-118.4132"/>
</g>
<!-- Core Library -->
<g id="node3" class="node">
<title>Core Library</title>
<polygon fill="none" stroke="#000000" points="143.1913,-36 54.8087,-36 54.8087,0 143.1913,0 143.1913,-36"/>
<text text-anchor="middle" x="99" y="-13.8" font-family="Times,serif" font-size="14.00" fill="#000000">Core Library</text>
</g>
<!-- Trogdord&#45;&gt;Core Library -->
<g id="edge1" class="edge">
<title>Trogdord-&gt;Core Library</title>
<path fill="none" stroke="#000000" d="M99,-61.5726C99,-56.6792 99,-51.5904 99,-46.6901"/>
<polygon fill="#000000" stroke="#000000" points="95.5001,-61.8313 99,-71.8314 102.5001,-61.8314 95.5001,-61.8313"/>
<polygon fill="#000000" stroke="#000000" points="102.5001,-46.4132 99,-36.4133 95.5001,-46.4133 102.5001,-46.4132"/>
</g>
<!-- Client 1 -->
<g id="node4" class="node">
<title>Client 1</title>
<polygon fill="none" stroke="#000000" points="54,-252 0,-252 0,-216 54,-216 54,-252"/>
<text text-anchor="middle" x="27" y="-229.8" font-family="Times,serif" font-size="14.00" fill="#000000">Client</text>
</g>
<!-- Client 1&#45;&gt;Redis -->
<g id="edge3" class="edge">
<title>Client 1-&gt;Redis</title>
<path fill="none" stroke="#000000" d="M52.3537,-208.6463C59.187,-201.813 66.5826,-194.4174 73.4278,-187.5722"/>
<polygon fill="#000000" stroke="#000000" points="49.7649,-206.2854 45.1686,-215.8314 54.7146,-211.2351 49.7649,-206.2854"/>
<polygon fill="#000000" stroke="#000000" points="75.9905,-189.9592 80.5867,-180.4133 71.0408,-185.0095 75.9905,-189.9592"/>
</g>
<!-- ... -->
<g id="node5" class="node">
<title>...</title>
<text text-anchor="middle" x="99" y="-229.8" font-family="Times,serif" font-size="14.00" fill="#000000">...</text>
</g>
<!-- ...&#45;&gt;Redis -->
<!-- Client x -->
<g id="node6" class="node">
<title>Client x</title>
<polygon fill="none" stroke="#000000" points="198,-252 144,-252 144,-216 198,-216 198,-252"/>
<text text-anchor="middle" x="171" y="-229.8" font-family="Times,serif" font-size="14.00" fill="#000000">Client</text>
</g>
<!-- Client x&#45;&gt;Redis -->
<g id="edge5" class="edge">
<title>Client x-&gt;Redis</title>
<path fill="none" stroke="#000000" d="M145.6463,-208.6463C138.813,-201.813 131.4174,-194.4174 124.5722,-187.5722"/>
<polygon fill="#000000" stroke="#000000" points="143.2854,-211.2351 152.8314,-215.8314 148.2351,-206.2854 143.2854,-211.2351"/>
<polygon fill="#000000" stroke="#000000" points="126.9592,-185.0095 117.4133,-180.4133 122.0095,-189.9592 126.9592,-185.0095"/>
</g>
</g>
</svg>