<?xml version="1.0" encoding="UTF-8" standalone="no"?>
<!DOCTYPE svg PUBLIC "-//W3C//DTD SVG 1.1//EN" "http://www.w3.org/Graphics/SVG/1.1/DTD/svg11.dtd">
<!-- Generated by graphviz version 2.40.1 (20161225.0304)
 -->
<!-- Title: G Pages: 1 -->
<svg width="166pt" height="116pt" viewBox="0.00 0.00 165.89 116.00" xmlns="http://www.w3.org/2000/svg" xmlns:xlink="http://www.w3.org/1999/xlink">
<g id="graph0" class="graph" transform="scale(1 1) rotate(0) translate(4 112)">
<title>G</title>
<polygon fill="#ffffff" stroke="transparent" points="-4,4 -4,-112 161.8942,-112 161.8942,4 -4,4"/>
<!-- Single&#45;Player Executable -->
<g id="node1" class="node">
<title>Single-Player Executable</title>
<polygon fill="none" stroke="#000000" points="157.8413,-108 .0529,-108 .0529,-72 157.8413,-72 157.8413,-108"/>
<text text-anchor="middle" x="78.9471" y="-85.8" font-family="Times,serif" font-size="14.00" fill="#000000">Single-Player Executable</text>
</g>
<!-- Core Library -->
<g id="node2" class="node">
<title>Core Library</title>
<polygon fill="none" stroke="#000000" points="123.1384,-36 34.7558,-36 34.7558,0 123.1384,0 123.1384,-36"/>
<text text-anchor="middle" x="78.9471" y="-13.8" font-family="Times,serif" font-size="14.00" fill="#000000">Core Library</text>
</g>
<!-- Single&#45;Player Executable&#45;&gt;Core Library -->
<g id="edge1" class="edge">
<title>Single-Player Executable-&gt;Core Library</title>
<path fill="none" stroke="#000000" d="M78.9471,-61.5726C78.9471,-56.6792 78.9471,-51.5904 78.9471,-46.6901"/>
<polygon fill="#000000" stroke="#000000" points="75.4472,-61.8313 78.9471,-71.8314 82.4472,-61.8314 75.4472,-61.8313"/>
<polygon fill="#000000" stroke="#000000" points="82.4472,-46.4132 78.9471,-36.4133 75.4472,-46.4133 82.4472,-46.4132"/>
</g>
</g>
</svg>